<svg viewBox="0 0 100 100" xmlns="http://www.w3.org/2000/svg"><title>AirWatch</title><path d="M24.32 41.66 A27 27 0 0 1 37.95 25.84" stroke="#50ccaa" stroke-width="8" fill="none" stroke-linecap="round"></path><path d="M40.1 24.88 A27 27 0 0 1 59.9 24.88" stroke="#f0e641" stroke-width="8" fill="none" stroke-linecap="round"></path><path d="M62.05 25.84 A27 27 0 0 1 75.68 41.66" stroke="#ff5050" stroke-width="8" fill="none" stroke-linecap="round"></path><g opacity="0.62" fill="none" stroke-linecap="round"><path d="M32 45 H54.5 a5 5 0 1 0 -4.6 -5" stroke="#2E7DD1" stroke-width="3.3"></path><path d="M30 52.5 H58.5 a5.6 5.6 0 1 1 -5.2 5.6" stroke="#2E7DD1" stroke-width="3.3"></path><path d="M34.5 60 H51.5 a4.4 4.4 0 1 0 -4.1 4.4" stroke="#7CC0F2" stroke-width="3.3"></path></g><g fill="#2E7DD1"><circle cx="77" cy="54" r="2.7" opacity="0.92"></circle><circle cx="68" cy="70.5" r="2.1" opacity="0.6"></circle><circle cx="50" cy="79" r="2.8" opacity="0.92"></circle><circle cx="32" cy="70.5" r="2.1" opacity="0.6"></circle><circle cx="23" cy="54" r="2.7" opacity="0.92"></circle></g><path d="M50 50 L67.84 33.94" stroke="#33414F" stroke-width="4.5" stroke-linecap="round"></path><circle cx="50" cy="50" r="3" fill="#33414F"></circle></svg>
